<?xml version="1.0" encoding="UTF-8" standalone="no"?>
<!DOCTYPE svg PUBLIC "-//W3C//DTD SVG 1.1//EN" "http://www.w3.org/Graphics/SVG/1.1/DTD/svg11.dtd">
<svg width="100%" height="100%" viewBox="0 0 271 260" version="1.1" xmlns="http://www.w3.org/2000/svg" xmlns:xlink="http://www.w3.org/1999/xlink" xml:space="preserve" xmlns:serif="http://www.serif.com/" style="fill-rule:evenodd;clip-rule:evenodd;stroke-linejoin:round;stroke-miterlimit:2;">
    <g transform="matrix(1,0,0,1,-2304.14,0)">
        <g id="Plan-de-travail1" serif:id="Plan de travail1" transform="matrix(0.797435,0,0,0.816115,508.319,315.192)">
            <rect x="2252" y="-386.211" width="338.828" height="318.192" style="fill:none;"/>
            <g transform="matrix(1.25402,0,0,1.22532,-690.277,-833.011)">
                <path d="M2349.35,443.911C2349.2,451.94 2349.31,455.794 2349.58,463.821C2350.1,479.432 2351.28,495.773 2352.07,501.605L2352.07,501.606C2355.96,530.049 2382.22,554.671 2414.77,573.491C2460.37,599.852 2517.4,615.61 2529.92,619.06L2529.92,619.06C2533.06,619.923 2542.99,622.651 2555.83,621.86L2555.83,621.86C2563.34,621.396 2578.72,620.257 2593.03,609.093C2593.74,608.542 2594.42,607.982 2595.09,607.416L2595.1,607.407C2607.5,596.78 2614.28,580.995 2614.28,564.674C2614.28,564.695 2614.66,521.409 2614.66,521.409L2614.63,521.409C2614.71,516.943 2614.34,510.961 2612.51,504.642C2611.17,499.999 2609.04,495.173 2605.72,490.633C2599.64,482.346 2593.11,478.795 2586.04,476.328C2578.8,473.804 2570.65,473.175 2561.89,465.197L2561.89,465.196C2556.11,459.928 2554.62,455.198 2552.69,449.47C2552.63,449.277 2552.56,449.083 2552.49,448.888C2551.53,446.051 2550.49,443.012 2549.09,439.659C2546.48,433.424 2542.63,426.105 2535.71,416.989C2531.58,411.549 2523.83,401.525 2510.96,391.829L2510.96,391.829C2489.85,375.916 2468.75,371.294 2463.3,370.249C2463.1,370.212 2462.93,370.18 2462.78,370.151C2454.54,368.624 2414.89,361.506 2381.37,386.43C2373.49,392.288 2352.78,408.414 2349.64,434.279L2349.64,434.279C2349.54,435.129 2349.44,436.058 2349.37,437.07C2349.23,439.035 2349.18,441.31 2349.35,443.911ZM2535.92,558.069L2593.54,535.95L2593.53,535.956L2593.51,536.024L2593.41,536.277L2593.36,536.423L2593.27,536.629L2593.22,536.765L2593.1,537.067L2593.03,537.214L2592.95,537.407L2592.89,537.557L2592.76,537.853L2592.7,537.993L2592.62,538.185L2592.55,538.34L2592.46,538.543L2592.41,538.653L2592.36,538.752L2592.26,538.959L2592.19,539.114L2592.1,539.295L2592.03,539.442L2591.89,539.726L2591.82,539.879L2591.73,540.053L2591.65,540.206L2591.51,540.487L2591.43,540.63L2591.34,540.807L2591.26,540.96L2591.15,541.15L2591.09,541.259L2591.04,541.36L2590.93,541.553L2590.85,541.704L2590.75,541.878L2590.67,542.018L2590.51,542.292L2590.42,542.436L2590.32,542.607L2590.23,542.75L2590.07,543.021L2589.99,543.154L2589.88,543.329L2589.79,543.471L2589.66,543.666L2589.61,543.757L2589.55,543.846L2589.42,544.043L2589.33,544.18L2589.21,544.357L2589.13,544.48L2588.95,544.747L2588.86,544.875L2588.74,545.05L2588.65,545.176L2588.46,545.441L2588.38,545.554L2588.24,545.735L2588.15,545.859L2588,546.068L2587.95,546.135L2587.89,546.204L2587.74,546.411L2587.64,546.529L2587.5,546.715L2587.42,546.816L2587.21,547.075L2587.13,547.184L2586.98,547.365L2586.89,547.471L2586.68,547.728L2586.6,547.82L2586.44,548.008L2586.35,548.112L2586.16,548.339L2586.12,548.375L2586.08,548.423L2585.89,548.641L2585.8,548.739L2585.62,548.934L2585.55,549.009L2585.32,549.261L2585.24,549.348L2585.06,549.537L2584.98,549.619L2584.74,549.869L2584.67,549.937L2584.48,550.133L2584.4,550.215L2584.14,550.464L2584.12,550.49L2583.88,550.718L2583.8,550.794L2583.58,550.999L2583.53,551.046L2583.27,551.29L2583.2,551.354L2582.98,551.55L2582.92,551.607L2582.64,551.848L2582.6,551.891L2582.36,552.094L2582.29,552.152L2582.01,552.391L2581.72,552.627L2581.66,552.679L2581.39,552.895L2581.37,552.912L2581.07,553.146L2581.01,553.185L2580.75,553.389L2580.71,553.42L2580.4,553.65L2580.38,553.666L2580.09,553.877L2580.04,553.909L2579.73,554.133L2579.41,554.353L2579.37,554.379L2579.05,554.595L2578.72,554.814L2578.7,554.828L2578.37,555.039L2578.36,555.041L2578.02,555.257L2577.67,555.466L2577.66,555.471C2577.43,555.61 2577.19,555.747 2576.96,555.881L2576.82,555.956C2571.23,559.077 2563.6,560.872 2545.3,559.175C2545.3,559.175 2544.64,559.112 2544.64,559.112L2544.44,559.092L2543.97,559.046L2543.75,559.024L2543.26,558.973L2543.08,558.955L2542.46,558.889L2542.2,558.861L2541.83,558.82L2541.5,558.783L2541.23,558.753L2540.83,558.707C2540.27,558.641 2539.7,558.572 2539.14,558.501L2538.94,558.477L2538.53,558.424L2538.29,558.392L2537.88,558.339L2537.64,558.307L2537.22,558.251L2537.01,558.222L2536.57,558.161L2536.41,558.139L2535.92,558.069ZM2503.81,550.744L2503.73,550.719L2502.95,550.47L2502.72,550.399L2501.81,550.103L2501.74,550.08L2500.75,549.753L2499.8,549.435L2499.62,549.374L2498.88,549.121L2498.62,549.032L2497.99,548.809L2497.7,548.71L2497.1,548.499L2496.82,548.397L2496.24,548.19L2495.96,548.091L2495.39,547.883L2495.14,547.789L2494.55,547.574L2494.34,547.493L2493.72,547.262L2493.56,547.202L2492.84,546.931L2492.8,546.916C2491.77,546.523 2490.8,546.144 2489.9,545.783L2488.95,545.398L2488.94,545.396L2488.08,545.044L2487.98,545.002L2487.19,544.674L2487.15,544.659L2486.29,544.297L2486,544.174L2485.44,543.935L2485.16,543.815L2484.64,543.592L2484.43,543.499L2483.8,543.223C2483.8,543.223 2482.68,542.736 2482.68,542.736L2590.75,501.25L2590.92,501.475C2594.23,505.996 2595.62,510.977 2596.12,515.307L2503.81,550.744ZM2455.23,530.588L2455.16,530.557L2454.1,530.067L2453.91,529.979L2452.94,529.529L2452.75,529.44L2451.66,528.935L2451.62,528.916L2450.45,528.365L2449.33,527.836L2449.15,527.748L2448.23,527.31L2447.98,527.19L2447.09,526.765L2446.87,526.656L2445.83,526.157L2445.78,526.131L2444.64,525.575L2443.56,525.045L2443.36,524.945L2442.48,524.51L2442.23,524.386L2441.36,523.952L2441.15,523.847L2440.1,523.315L2551.57,480.524C2557.53,485.485 2563.22,488.171 2568.65,490.083L2458.84,532.235C2457.63,531.686 2456.42,531.137 2455.23,530.588ZM2419.36,511.624L2419.11,511.467L2418.74,511.232L2418.33,510.964L2417.97,510.732L2417.51,510.43L2417.22,510.242L2416.94,510.057L2416.49,509.755L2416.11,509.503L2415.73,509.251L2415.34,508.986L2414.98,508.743L2414.58,508.472L2414.24,508.233L2413.83,507.956L2413.5,507.723L2413.09,507.437L2412.78,507.219C2400.32,498.437 2389.61,488.196 2380.9,475.148C2380.9,475.148 2380.47,474.498 2380.47,474.498L2380.08,473.891L2380.02,473.807L2379.63,473.204L2379.59,473.134L2379.24,472.587L2379.18,472.483L2378.81,471.895L2378.74,471.774L2378.41,471.234L2378.36,471.155L2378,470.56L2377.91,470.422L2377.55,469.812C2377.55,469.812 2377.26,469.32 2377.26,469.32L2377.17,469.166L2376.97,468.814L2376.88,468.654L2376.64,468.246L2376.47,467.943L2376.41,467.842C2367.68,452.343 2367.2,442.475 2367.81,436.848L2367.85,436.487C2370.2,417.127 2386.41,405.539 2392.31,401.154L2392.31,401.154C2419.92,380.629 2452.65,386.933 2459.43,388.19L2459.43,388.19C2463.19,388.887 2481.54,392.625 2499.92,406.479C2510.95,414.79 2517.56,423.415 2521.09,428.075L2521.09,428.077C2531.97,442.409 2533.87,451.573 2536.69,459.292C2537.48,461.452 2538.32,463.527 2539.34,465.566L2419.36,511.624ZM2453.53,414.478C2436.7,405.194 2418.1,414.62 2416.99,415.221C2414.49,416.574 2409.42,419.455 2405.57,423.69C2402.19,427.402 2399.75,432.04 2399.41,437.431L2399.41,437.431C2399.09,442.432 2400.64,447.007 2403.45,451.115C2406.41,455.436 2410.95,459.217 2415,462.411L2415.01,462.413C2421.74,467.717 2428.58,472.386 2438.36,472.194L2438.36,472.193C2454.06,471.881 2463.22,458.884 2463.62,458.297C2470.18,448.585 2471.05,435.162 2465.06,425.186C2461.37,419.028 2456.21,415.955 2453.53,414.478Z" style="fill:currentColor;fill-rule:nonzero;"/>
            </g>
        </g>
    </g>
</svg>
